<?xml version="1.0" standalone="no"?>
<!DOCTYPE svg PUBLIC "-//W3C//DTD SVG 20010904//EN"
 "http://www.w3.org/TR/2001/REC-SVG-20010904/DTD/svg10.dtd">
<svg version="1.0" xmlns="http://www.w3.org/2000/svg"
 width="150.000000pt" height="150.000000pt" viewBox="0 0 150.000000 150.000000"
 preserveAspectRatio="xMidYMid meet">
<metadata>
Created by potrace 1.11, written by Peter Selinger 2001-2013
</metadata>
<g transform="translate(0.000000,150.000000) scale(0.100000,-0.100000)"
fill="#000000" stroke="none">
<path d="M579 1283 c-47 -16 -103 -64 -146 -125 -25 -38 -50 -52 -39 -23 3 8
2 15 -3 15 -4 0 -14 11 -21 25 -7 14 -23 31 -36 40 -27 17 -109 30 -126 19 -7
-5 -19 -9 -26 -10 -23 -4 -82 -55 -113 -97 -35 -48 -59 -124 -59 -184 0 -60
30 -113 63 -113 19 0 31 30 17 44 -5 5 -10 15 -10 21 0 5 5 2 11 -7 16 -29 24
-21 24 26 0 25 -4 44 -9 43 -4 -1 -11 5 -13 13 -4 12 -3 12 5 1 6 -8 12 -10
16 -3 4 6 -2 15 -11 21 -10 6 -13 11 -7 11 7 0 11 8 10 17 -1 11 7 18 20 19
13 1 21 -4 20 -12 -3 -21 -16 -29 -16 -11 0 10 -4 17 -9 17 -6 0 -9 -9 -8 -20
1 -11 7 -20 13 -20 11 0 11 -10 -1 -100 -2 -14 -4 -25 -5 -25 -1 0 -3 -23 -5
-51 -1 -27 -6 -70 -9 -95 -4 -24 -9 -64 -12 -89 -3 -25 -7 -54 -9 -66 -1 -11
-6 -50 -10 -87 l-7 -67 30 0 c16 0 35 -7 42 -15 10 -12 15 -12 35 1 26 17 53
9 65 -20 7 -16 9 -17 9 -4 1 11 9 16 23 16 24 -2 72 -28 51 -28 -7 0 -14 4
-18 9 -3 6 -14 9 -25 8 -10 -1 -16 -5 -14 -9 3 -5 10 -6 15 -3 5 4 9 2 9 -3 0
-11 50 -10 68 1 6 5 12 13 12 20 0 6 -7 2 -15 -9 -12 -16 -14 -17 -15 -3 0 18
26 33 34 20 3 -4 15 -7 28 -6 32 3 52 -14 37 -31 -6 -8 -10 -14 -8 -15 34 -7
38 -6 32 4 -12 19 -14 57 -4 57 6 0 8 -6 5 -13 -2 -7 2 -21 11 -32 14 -19 15
-19 8 -1 -5 14 -3 17 6 11 10 -6 11 -3 2 14 -10 17 -9 22 4 27 18 7 11 22 -19
35 -19 8 -19 9 -1 5 11 -2 29 -7 40 -11 18 -6 18 -5 3 5 -17 11 -26 36 -10 26
5 -3 9 1 9 9 0 8 -5 11 -10 8 -6 -4 -7 -1 -3 6 5 7 15 10 25 7 14 -5 14 -4 -1
7 -16 13 -16 15 -1 37 12 18 13 21 2 15 -8 -4 -11 -4 -6 0 4 5 0 17 -10 27 -9
10 -13 21 -10 25 4 3 7 1 7 -6 0 -7 5 -9 10 -6 8 5 7 11 -1 21 -7 9 -8 14 -3
13 21 -4 28 2 14 11 -10 6 -11 10 -2 10 6 0 12 5 12 11 0 6 -7 8 -16 5 -8 -3
-12 -2 -9 3 3 6 13 9 23 8 14 -1 17 -11 18 -54 0 -29 -2 -53 -5 -53 -3 0 -5
-40 -3 -90 2 -49 8 -90 13 -90 27 0 59 -16 59 -31 0 -6 -8 -6 -22 1 -21 10
-21 10 2 -9 25 -20 46 -19 33 2 -4 7 2 5 12 -3 14 -11 17 -12 11 -1 -6 9 -5
12 5 9 8 -3 13 -11 11 -17 -1 -8 4 -7 18 1 25 16 25 23 -1 49 -19 19 -19 20
-2 15 14 -5 19 -1 19 14 0 14 -5 19 -16 15 -11 -4 -11 -2 2 8 14 11 15 16 5
26 -9 10 -8 11 6 5 10 -3 16 -12 14 -19 -3 -6 0 -12 7 -12 8 0 11 9 8 22 -2
13 1 26 7 29 8 5 8 13 1 27 -6 11 -7 25 -3 32 11 17 10 31 -2 39 -5 4 0 6 11
6 21 -2 24 -11 14 -33 -3 -5 -5 -48 -5 -95 l0 -85 36 1 c33 0 37 -2 34 -23 -1
-13 2 -26 8 -30 6 -3 7 -1 3 5 -5 8 5 11 30 9 30 -2 38 2 40 17 1 10 8 22 14
26 8 5 9 10 2 14 -6 3 -13 -3 -17 -14 -3 -11 -15 -25 -25 -30 -16 -8 -18 -8
-14 5 3 8 10 12 15 9 5 -3 9 2 9 11 0 10 -5 13 -12 9 -7 -4 -8 -3 -4 5 4 6 12
8 18 5 6 -4 8 1 3 15 -4 13 -2 21 5 21 6 0 8 -5 4 -12 -5 -9 -2 -9 9 1 9 7 17
19 17 25 0 7 -3 6 -9 -2 -6 -10 -12 -7 -24 12 -15 22 -15 26 -1 40 17 17 25
20 23 8 -1 -4 0 -10 1 -14 1 -5 3 -11 5 -15 14 -51 38 -84 69 -96 16 -6 16
-10 5 -25 -12 -15 -12 -16 1 -6 22 16 52 25 45 14 -3 -6 1 -13 9 -16 9 -3 14
-9 11 -13 -2 -4 2 -8 10 -8 8 0 12 5 8 10 -3 5 3 7 13 5 11 -2 18 -10 16 -17
-1 -7 2 -10 8 -6 8 5 8 11 0 20 -8 9 -6 14 7 19 15 6 15 8 3 16 -8 6 -10 10
-4 10 18 0 24 -12 13 -26 -7 -8 -7 -14 1 -19 6 -4 9 -1 8 7 -2 8 6 12 22 10
19 -2 22 0 10 8 -14 9 -13 11 9 14 5 0 12 4 16 8 9 8 -16 5 -32 -5 -16 -10
-27 11 -15 26 6 7 10 14 9 17 -1 3 13 26 30 51 18 26 29 49 26 53 -4 3 0 6 7
6 7 0 11 3 8 6 -4 3 0 21 8 40 13 32 13 34 -6 34 -12 0 -29 -15 -44 -37 -34
-54 -63 -77 -99 -78 -27 -1 -32 2 -33 22 -2 21 0 22 15 11 14 -12 15 -11 3 4
-12 15 -12 20 2 33 20 20 21 32 2 16 -11 -9 -16 -9 -22 1 -4 7 -4 10 1 6 4 -4
20 1 35 12 24 17 29 18 34 4 3 -8 11 -12 16 -9 8 5 8 11 1 19 -6 7 -8 16 -4
19 3 4 1 12 -4 19 -7 9 -4 18 9 30 10 10 18 14 18 9 0 -6 -4 -13 -10 -16 -5
-3 -10 -10 -10 -16 0 -5 8 -4 19 2 19 13 23 39 6 51 -6 5 -5 8 3 8 6 0 21 -9
33 -21 l21 -21 -7 22 c-5 17 -4 20 5 15 15 -9 6 9 -17 36 -11 13 -11 16 2 16
8 0 12 -4 10 -8 -3 -4 1 -9 8 -12 9 -3 12 6 12 30 -1 20 4 37 13 42 8 5 11 11
6 13 -5 3 -18 -3 -28 -13 -12 -11 -14 -19 -7 -19 7 0 9 -4 6 -10 -10 -16 -21
-12 -22 9 -1 11 5 22 13 25 8 3 14 10 14 16 0 6 -4 9 -8 6 -5 -3 -8 13 -8 34
1 22 -2 40 -6 40 -5 0 -8 9 -8 20 0 29 -57 62 -98 56 -35 -4 -100 -48 -109
-75 -4 -9 -9 -18 -12 -21 -9 -7 -35 -64 -33 -72 1 -3 -5 -9 -13 -12 -8 -3 -15
-1 -15 5 0 6 -5 7 -12 3 -7 -4 -8 -3 -4 5 4 6 12 9 17 6 5 -4 9 1 9 10 0 10 5
14 13 10 6 -4 5 -1 -4 7 -24 20 -29 45 -13 59 9 8 11 16 5 23 -12 14 -4 28 24
45 19 12 19 12 -2 8 -13 -3 -25 -1 -28 3 -7 12 5 40 17 40 6 0 5 -7 -2 -15
-21 -25 -7 -26 15 -1 18 20 23 36 15 51 -7 15 -4 51 5 58 6 5 4 7 -5 4 -8 -2
-14 -10 -12 -16 1 -7 -2 -10 -8 -6 -5 3 -10 1 -10 -6 0 -7 -3 -9 -7 -6 -3 4 2
15 11 26 11 12 14 21 7 26 -14 8 -14 25 -1 25 5 0 9 -5 7 -11 -1 -6 4 -13 11
-14 7 -2 8 -1 2 2 -8 3 -7 9 1 19 7 8 9 17 5 21 -3 3 -6 1 -6 -5 0 -6 -7 -9
-15 -6 -9 4 -15 19 -15 40 0 19 -3 35 -7 35 -5 1 -31 2 -60 3 l-51 2 -16 -56
c-9 -30 -27 -98 -41 -150 -14 -52 -30 -103 -36 -113 -5 -10 -7 -23 -3 -29 5
-7 0 -9 -12 -6 -14 4 -20 0 -21 -13 -1 -11 3 -19 8 -19 6 0 7 5 4 10 -3 6 -1
10 5 10 8 0 9 -7 5 -17 -4 -10 -8 -25 -9 -32 -4 -21 -22 -25 -30 -6 -3 9 -2
13 3 10 5 -3 12 -1 16 5 3 5 1 10 -6 10 -6 0 -9 8 -6 20 3 10 0 21 -7 24 -7 3
-7 5 2 5 6 1 12 6 12 12 0 5 -4 7 -10 4 -6 -3 -7 1 -4 9 3 9 10 16 16 16 5 0
7 -4 4 -8 -2 -4 0 -14 6 -22 8 -12 9 -12 4 2 -3 10 -1 20 4 23 13 8 13 25 -1
25 -5 0 -7 -5 -3 -12 5 -7 3 -8 -5 -3 -9 5 -9 11 -3 17 6 6 8 17 5 24 -3 8 1
14 8 14 8 0 6 5 -5 13 -9 7 -17 17 -16 22 2 6 1 12 0 15 -1 3 -3 25 -5 50 -1
25 0 39 2 32 3 -6 8 -10 12 -8 4 3 8 -1 8 -9 0 -8 -4 -12 -8 -10 -4 3 -6 -3
-5 -12 4 -28 21 -16 21 15 0 15 4 34 10 42 8 13 7 13 -8 1 -15 -12 -17 -11
-17 3 0 9 6 16 12 16 7 0 2 7 -10 16 -12 8 -22 23 -22 33 0 39 -49 54 -111 34z
m131 -77 c0 -3 -4 -8 -10 -11 -5 -3 -10 -1 -10 4 0 6 5 11 10 11 6 0 10 -2 10
-4z m-460 -47 c0 8 12 4 30 -9 24 -17 28 -25 20 -35 -8 -10 -8 -15 1 -21 8 -5
10 -3 4 7 -5 8 -4 11 1 6 30 -28 -7 -174 -46 -185 -13 -3 -13 -2 -1 6 8 6 16
19 17 29 3 17 2 17 -11 -1 -13 -18 -14 -18 -12 2 1 13 7 19 17 17 13 -3 17 5
18 33 1 21 -3 44 -8 52 -8 13 -10 13 -10 -2 0 -9 -4 -20 -10 -23 -6 -4 -6 4 0
21 6 15 9 33 6 41 -3 7 -1 13 3 13 5 0 7 9 4 19 -4 14 -12 19 -31 17 -15 -1
-26 -7 -25 -12 1 -6 -4 -11 -12 -11 -8 0 -12 4 -9 9 3 4 0 8 -5 8 -6 0 -11 -5
-11 -11 0 -5 -5 -7 -11 -3 -15 9 2 25 30 27 11 1 21 5 21 10 0 5 7 4 15 -3 11
-9 15 -10 15 -1z m297 -10 c-14 -8 -16 -14 -6 -25 6 -8 8 -14 3 -14 -5 0 -10
-10 -10 -22 -1 -13 -4 -33 -8 -45 -15 -55 -30 -136 -28 -146 1 -5 -3 -5 -9 -1
-9 5 -10 2 -6 -10 4 -9 3 -15 -2 -11 -12 7 -11 46 1 62 6 7 3 15 -9 22 -10 6
-13 11 -7 11 5 0 15 -5 20 -10 7 -7 11 -1 11 19 0 17 -3 28 -6 27 -3 -2 -6 7
-6 20 0 30 3 30 14 2 8 -21 8 -21 13 5 3 14 1 24 -3 21 -5 -3 -9 0 -9 5 0 6 6
11 14 11 10 0 14 10 14 30 -1 24 -4 28 -15 19 -7 -6 -13 -17 -13 -25 0 -7 -4
-16 -10 -19 -14 -8 -1 26 18 48 8 9 12 17 8 17 -18 0 5 16 26 17 20 2 21 1 5
-8z m-387 -52 c0 -7 -4 -6 -10 3 -5 8 -10 12 -10 8 0 -3 -3 -14 -7 -24 -4 -12
-3 -15 5 -10 8 5 10 2 6 -8 -3 -9 -10 -16 -14 -16 -10 0 -6 41 4 59 9 13 26 5
26 -12z m807 6 c-4 -3 -3 -11 3 -17 5 -7 5 -18 1 -25 -6 -9 -11 -10 -15 -2 -4
6 -2 11 4 11 6 0 8 5 5 10 -5 8 -12 7 -23 -2 -12 -9 -11 -6 2 10 11 12 21 22
24 22 3 0 2 -3 -1 -7z m-261 -83 c0 -11 -6 -22 -12 -24 -20 -8 -9 35 11 44 1
0 1 -9 1 -20z m-426 0 c0 -5 -5 -10 -11 -10 -5 0 -7 5 -4 10 3 6 8 10 11 10 2
0 4 -4 4 -10z m120 -149 c7 -11 17 -18 22 -15 4 3 8 1 8 -5 0 -6 7 -7 17 -4
12 5 14 3 8 -7 -6 -10 -4 -12 7 -7 13 5 15 0 11 -26 -3 -18 -12 -50 -20 -72
-8 -22 -15 -46 -15 -52 -1 -7 -6 -13 -11 -13 -5 0 -4 -7 3 -15 11 -13 10 -14
-4 -9 -19 7 -19 9 -5 36 9 16 8 23 -2 29 -10 6 -10 9 -2 9 8 0 10 7 6 18 -6
15 -5 15 10 3 10 -8 17 -9 17 -3 0 6 -8 13 -19 17 -12 3 -18 15 -18 31 0 13
-7 32 -15 42 -9 9 -13 23 -10 31 2 8 0 11 -5 8 -5 -3 -10 0 -10 8 0 20 10 19
27 -4z m743 1 c-7 -5 -11 -17 -9 -27 5 -30 -12 -68 -26 -59 -9 5 -8 2 1 -10
12 -14 12 -17 1 -14 -8 2 -14 -3 -15 -11 0 -8 -8 -15 -18 -17 -14 -2 -15 1 -8
10 6 7 7 17 3 21 -4 5 -2 5 4 2 7 -4 14 2 17 14 4 15 2 19 -9 15 -9 -3 -12 -1
-9 5 4 5 16 7 28 4 21 -6 21 -5 4 9 -18 14 -18 14 2 21 16 5 19 10 12 24 -8
13 -5 17 12 18 14 1 17 -1 10 -5z m-862 -66 c5 3 9 2 8 -3 -1 -4 0 -11 1 -15
1 -5 3 -11 5 -15 1 -5 5 -16 10 -26 11 -26 -2 -162 -19 -195 -16 -30 -51 -39
-60 -16 -4 10 -2 13 7 8 6 -4 4 1 -5 12 -9 11 -16 28 -14 39 3 23 19 23 22 0
1 -8 -2 -13 -7 -9 -5 3 -9 0 -9 -6 0 -7 6 -10 13 -7 6 2 11 10 10 16 -2 6 2
11 7 11 6 0 2 8 -7 18 -10 11 -21 17 -25 15 -4 -2 -10 1 -13 7 -4 6 -3 10 2 9
4 -1 17 -1 27 0 19 1 19 1 1 14 -10 8 -15 19 -11 26 4 6 2 20 -6 29 -11 15
-11 15 3 5 9 -7 19 -10 23 -6 4 4 4 0 0 -10 -3 -10 -1 -17 6 -17 6 0 8 5 5 10
-3 6 0 10 7 10 7 1 2 8 -12 16 -23 14 -23 15 -3 11 16 -4 20 -1 16 11 -4 8 -2
13 3 9 6 -3 10 3 11 13 1 11 -2 22 -8 25 -5 4 -9 12 -8 18 0 9 2 8 6 -1 2 -6
9 -10 14 -6z m662 -2 c-7 -3 -9 -13 -6 -22 6 -14 5 -15 -9 -2 -16 15 -7 31 17
29 6 0 5 -3 -2 -5z m-680 -21 c8 -7 -11 -33 -24 -33 -5 0 -9 5 -9 11 0 5 5 7
12 3 8 -5 9 -2 5 9 -6 17 4 23 16 10z m292 -32 c-1 -11 -8 -27 -16 -37 -13
-16 -12 -17 6 -10 16 6 18 5 8 -5 -9 -9 -16 -10 -24 -2 -7 7 -6 15 5 25 8 9
13 18 10 21 -4 3 -3 10 1 16 9 16 12 14 10 -8z m373 -16 c-1 -14 -6 -25 -11
-25 -5 0 -6 7 -3 16 3 9 6 20 6 25 0 5 2 9 5 9 3 0 4 -11 3 -25z m282 4 c0 -6
-4 -7 -10 -4 -5 3 -10 11 -10 16 0 6 5 7 10 4 6 -3 10 -11 10 -16z m-445 -69
c-3 -5 -12 -10 -18 -10 -7 0 -6 4 3 10 19 12 23 12 15 0z m149 -25 c-4 -8 -11
-15 -16 -15 -6 0 -5 6 2 15 7 8 14 15 16 15 2 0 1 -7 -2 -15z m216 6 c0 -14
-29 -21 -36 -9 -4 6 -3 8 4 4 6 -3 13 -2 17 4 8 12 15 13 15 1z m-380 -11 c0
-5 -5 -10 -11 -10 -5 0 -7 5 -4 10 3 6 8 10 11 10 2 0 4 -4 4 -10z m20 -20 c0
-5 -5 -10 -11 -10 -5 0 -7 5 -4 10 3 6 8 10 11 10 2 0 4 -4 4 -10z m314 -2
c-3 -4 -9 -8 -15 -8 -5 0 -9 4 -9 8 0 5 7 9 15 9 8 0 12 -4 9 -9z m-170 -14
c3 -8 2 -12 -4 -9 -6 3 -10 10 -10 16 0 14 7 11 14 -7z m-6 -30 c4 2 8 -8 9
-22 l1 -27 -14 25 c-7 14 -13 30 -13 35 0 6 3 4 6 -3 2 -6 8 -10 11 -8z m145
-9 c-7 -21 -12 -19 -10 4 0 11 5 18 9 15 4 -3 5 -11 1 -19z m-548 -6 c-4 -5
-1 -9 6 -9 9 0 9 -4 -1 -15 -6 -8 -9 -19 -5 -24 3 -7 0 -8 -10 -5 -11 5 -12
10 -5 18 5 7 8 22 5 35 -2 12 0 19 6 16 5 -4 7 -11 4 -16z m225 11 c0 -5 -5
-10 -11 -10 -5 0 -7 5 -4 10 3 6 8 10 11 10 2 0 4 -4 4 -10z m5 -71 c-4 -5
-14 -8 -23 -8 -15 1 -15 2 1 6 9 2 14 9 11 15 -4 7 -2 8 5 4 6 -4 9 -12 6 -17z
m-245 -29 c0 -5 -2 -10 -4 -10 -3 0 -8 5 -11 10 -3 6 -1 10 4 10 6 0 11 -4 11
-10z m-307 -45 c-3 -9 -8 -14 -10 -11 -3 3 -2 9 2 15 9 16 15 13 8 -4z m191
-7 c-3 -4 -11 -5 -19 -1 -21 7 -19 12 4 10 11 0 18 -5 15 -9z m116 -4 c0 -2
-7 -4 -15 -4 -8 0 -15 4 -15 10 0 5 7 7 15 4 8 -4 15 -8 15 -10z m-160 -14 c0
-5 -5 -10 -11 -10 -5 0 -7 5 -4 10 3 6 8 10 11 10 2 0 4 -4 4 -10z m321 -28
c-7 -2 -18 1 -23 6 -8 8 -4 9 13 5 13 -4 18 -8 10 -11z m38 4 c9 -11 9 -16 0
-22 -8 -4 -9 -3 -5 4 4 7 2 12 -3 12 -6 0 -11 5 -11 10 0 14 5 13 19 -4z m164
-1 c-3 -9 -8 -14 -10 -11 -3 3 -2 9 2 15 9 16 15 13 8 -4z m252 -5 c-3 -5 -16
-10 -28 -9 -20 1 -20 2 3 9 14 4 26 8 28 9 2 1 0 -3 -3 -9z"/>
<path d="M425 780 c-3 -5 -1 -10 4 -10 6 0 11 5 11 10 0 6 -2 10 -4 10 -3 0
-8 -4 -11 -10z"/>
<path d="M230 680 c0 -5 5 -10 11 -10 5 0 7 5 4 10 -3 6 -8 10 -11 10 -2 0 -4
-4 -4 -10z"/>
<path d="M1427 1285 c-56 -15 -54 -15 -66 -15 -8 0 -16 -56 -26 -170 -7 -81
-19 -206 -20 -210 -2 -8 -17 -152 -19 -188 -3 -43 26 -62 64 -42 10 5 20 6 24
3 8 -8 -13 -33 -28 -33 -6 0 -4 5 4 10 9 6 10 10 3 10 -16 0 -26 -17 -13 -25
19 -11 50 -14 56 -4 3 5 2 9 -3 8 -20 -3 -27 2 -13 11 13 8 13 13 2 31 -7 11
-11 24 -8 27 3 3 6 0 6 -7 0 -7 5 -9 12 -5 6 4 8 3 4 -4 -3 -6 -2 -13 4 -17 6
-4 7 -11 4 -17 -4 -7 -2 -8 5 -4 9 6 9 11 0 22 -9 11 -8 14 2 14 8 0 4 7 -9
16 -23 16 -29 34 -12 34 6 0 9 -4 8 -9 -2 -5 2 -9 7 -10 6 -1 10 3 10 8 0 5 3
12 7 16 4 4 4 13 1 21 -3 8 0 14 7 14 6 0 8 5 5 11 -5 6 -11 4 -19 -7 -7 -9
-19 -14 -27 -11 -10 4 -9 6 4 6 9 1 17 4 17 7 0 4 -8 13 -17 21 -16 13 -16 13
5 3 18 -9 22 -8 22 5 0 10 -5 14 -12 10 -7 -4 -4 0 6 9 10 8 23 13 29 9 6 -3
7 -1 3 6 -4 6 -11 9 -16 6 -5 -3 -12 0 -16 6 -4 8 -3 9 4 5 7 -4 12 -1 12 8 0
8 8 20 18 25 9 6 12 11 5 11 -6 0 -18 -7 -27 -15 -8 -8 -17 -11 -20 -7 -3 5 5
15 19 22 13 7 21 18 18 26 -3 8 -9 11 -14 8 -5 -3 -9 0 -9 5 0 15 27 14 33 -1
5 -12 6 -3 8 52 0 11 5 20 12 20 6 0 1 7 -11 16 -12 8 -20 19 -17 24 3 4 0 11
-5 13 -6 3 -5 4 2 3 7 -2 12 -9 11 -15 -2 -6 4 -11 12 -11 9 0 12 6 8 17 -4
11 -3 14 5 9 8 -5 10 -2 6 8 -3 9 -10 16 -16 16 -5 0 -6 -4 -3 -10 3 -6 -1 -7
-10 -3 -12 4 -13 8 -5 13 9 6 9 9 -1 13 -8 3 -3 5 11 3 25 -4 25 -2 25 50 0
41 -3 54 -15 55 -10 0 -9 3 5 9 16 7 17 9 3 9 -13 1 -16 8 -11 36 3 19 4 35 2
34 -2 0 -25 -7 -52 -14z m60 -110 c0 -8 -4 -15 -9 -15 -10 0 -11 14 -1 23 9
10 10 9 10 -8z m0 -51 c-3 -3 -12 -4 -19 -1 -8 3 -5 6 6 6 11 1 17 -2 13 -5z
m-27 -104 c8 -5 11 -10 5 -10 -5 0 -17 5 -25 10 -8 5 -10 10 -5 10 6 0 17 -5
25 -10z m-2 -29 c10 -6 9 -11 -4 -22 -14 -11 -16 -11 -10 0 5 8 3 17 -5 22 -8
5 -9 9 -4 9 6 0 16 -4 23 -9z m-28 -245 c0 -3 -4 -8 -10 -11 -5 -3 -10 -1 -10
4 0 6 5 11 10 11 6 0 10 -2 10 -4z"/>
<path d="M707 1089 c6 -6 9 -19 6 -28 -4 -14 -3 -14 6 -1 15 21 14 27 -6 35
-14 5 -15 3 -6 -6z"/>
<path d="M946 973 c-3 -3 -1 -12 4 -18 7 -9 6 -16 -4 -24 -18 -15 -10 -41 13
-40 11 0 12 2 3 6 -10 4 -10 8 -1 19 6 8 8 14 3 14 -5 0 -2 5 6 10 11 7 11 10
2 10 -7 0 -11 4 -7 9 6 11 -9 23 -19 14z"/>
<path d="M1230 900 c0 -5 5 -10 11 -10 5 0 7 5 4 10 -3 6 -8 10 -11 10 -2 0
-4 -4 -4 -10z"/>
<path d="M1236 868 c3 -4 11 -5 19 -1 21 7 19 12 -4 10 -11 0 -18 -5 -15 -9z"/>
<path d="M75 821 c-18 -7 -17 -8 6 -13 17 -3 26 0 26 9 0 15 -3 15 -32 4z"/>
<path d="M1194 695 c3 -9 -3 -19 -15 -25 -11 -6 -17 -15 -14 -20 3 -4 -1 -11
-7 -13 -9 -4 -7 -6 3 -6 16 -1 46 26 43 38 -1 3 2 5 6 4 4 -1 6 7 3 17 -3 11
-10 20 -15 20 -6 0 -8 -7 -4 -15z"/>
<path d="M539 625 c-1 -3 -2 -8 -3 -12 -1 -5 -5 -13 -9 -20 -4 -6 -3 -14 3
-18 12 -7 11 -8 14 28 3 23 -1 38 -5 22z"/>
<path d="M1113 603 c4 -3 1 -13 -6 -22 -11 -14 -10 -14 5 -2 16 12 16 31 1 31
-4 0 -3 -3 0 -7z"/>
<path d="M1267 564 c-12 -14 -22 -29 -22 -32 -1 -4 -7 -18 -14 -32 -14 -24
-13 -24 5 -10 12 9 15 9 7 1 -7 -8 -8 -20 -3 -30 4 -9 13 -28 21 -43 7 -16 19
-28 27 -28 9 0 12 -6 8 -16 -4 -10 -2 -13 7 -7 18 11 36 12 42 3 3 -5 -4 -7
-15 -5 -11 2 -20 0 -20 -4 0 -10 57 -20 65 -13 3 3 -3 14 -12 24 -12 13 -13
22 -6 29 8 8 13 7 18 -2 5 -8 4 -10 -3 -5 -7 4 -12 3 -12 -3 0 -5 5 -13 10
-16 16 -10 24 23 10 40 -7 8 -8 15 -3 15 6 0 15 -10 21 -22 11 -22 11 -21 6 5
-4 19 -2 27 7 27 10 0 10 3 3 8 -14 9 -44 67 -44 85 0 19 -32 47 -59 52 -15 3
-29 -5 -44 -21z m126 -108 c4 -10 1 -13 -9 -9 -15 6 -19 23 -5 23 5 0 11 -7
14 -14z"/>
<path d="M1390 503 c0 -6 8 -17 18 -24 16 -13 16 -13 2 6 -8 11 -16 22 -17 24
-2 2 -3 0 -3 -6z"/>
<path d="M896 492 c-3 -5 1 -15 8 -21 11 -10 14 -9 12 3 -3 21 -13 29 -20 18z"/>
<path d="M1202 475 c4 -4 -3 -16 -15 -26 -16 -13 -18 -19 -7 -19 12 0 11 -3
-2 -11 -10 -5 -18 -15 -18 -20 0 -6 10 -3 21 5 12 8 29 12 38 9 10 -4 8 1 -7
14 -20 18 -20 21 -6 27 9 4 19 4 22 1 3 -3 0 -5 -7 -5 -7 0 -9 -4 -6 -10 10
-16 23 -12 21 6 -1 9 -11 21 -22 27 -10 5 -16 6 -12 2z"/>
<path d="M710 420 c0 -5 5 -10 10 -10 6 0 10 5 10 10 0 6 -4 10 -10 10 -5 0
-10 -4 -10 -10z"/>
<path d="M113 393 c9 -2 17 -8 17 -11 0 -4 9 -13 21 -20 12 -8 18 -9 14 -3 -3
6 0 11 9 11 8 0 16 6 19 13 3 9 8 9 23 -2 18 -14 18 -14 2 4 -16 17 -18 17
-41 2 -22 -14 -27 -14 -37 -2 -7 8 -20 14 -29 14 -13 -1 -13 -2 2 -6z"/>
<path d="M799 378 c-6 -27 -5 -39 4 -45 7 -3 9 -3 5 2 -4 4 -3 14 3 21 7 8 7
14 -1 19 -5 3 -10 5 -11 3z"/>
<path d="M1025 349 c-4 -6 -5 -12 -2 -15 2 -3 7 2 10 11 7 17 1 20 -8 4z"/>
</g>
</svg>
